<svg width="234" height="212" viewBox="0 0 234 212" fill="none" xmlns="http://www.w3.org/2000/svg">
<path d="M12 148V170C12 186.569 25.4315 200 42 200H192C208.569 200 222 186.569 222 170V148" stroke="black" stroke-width="23"/>
<path d="M125 8C125 3.58172 121.418 0 117 0C112.582 0 109 3.58172 109 8L125 8ZM111.343 150.657C114.467 153.781 119.533 153.781 122.657 150.657L173.569 99.7452C176.693 96.621 176.693 91.5557 173.569 88.4315C170.444 85.3073 165.379 85.3073 162.255 88.4315L117 133.686L71.7452 88.4315C68.621 85.3073 63.5557 85.3073 60.4315 88.4315C57.3073 91.5557 57.3073 96.621 60.4315 99.7452L111.343 150.657ZM117 8H109L109 145H117H125L125 8L117 8Z" fill="black"/>
</svg>
